<svg width="35" height="41" viewBox="0 0 35 41" fill="none" xmlns="http://www.w3.org/2000/svg">
<path d="M32.4004 16.1705V17.7776C32.4065 18.2327 32.3883 18.6864 32.349 19.1401C32.3081 19.5937 32.2461 20.0446 32.1599 20.4926C32.0737 20.9405 31.9663 21.3843 31.8362 21.8223C31.7046 22.2617 31.5518 22.6927 31.3779 23.1179C31.2039 23.5431 31.0088 23.9584 30.7925 24.3666C30.5762 24.7747 30.3387 25.1715 30.0816 25.5584C29.8259 25.9452 29.5491 26.3192 29.2557 26.6819C28.9607 27.0431 28.6491 27.3916 28.3178 27.7272C27.9881 28.0614 27.6432 28.38 27.2802 28.6843C26.9187 28.9887 26.542 29.276 26.1503 29.5462C25.7585 29.8164 25.3546 30.0695 24.9386 30.3042C24.5212 30.5389 24.0931 30.755 23.6544 30.9513C23.2158 31.149 22.768 31.3253 22.3112 31.4832C21.8544 31.6396 21.3915 31.7762 20.9211 31.8928C20.4507 32.008 19.9757 32.1033 19.4947 32.1772C19.0152 32.2512 18.5327 32.3038 18.0471 32.3351C17.5359 32.3593 17.0246 32.3593 16.5133 32.3351C16.0021 32.3109 15.4938 32.2626 14.9886 32.19C14.4834 32.1175 13.9827 32.0222 13.4866 31.9013C12.992 31.7819 12.5049 31.6382 12.0254 31.4718C11.5444 31.3054 11.0755 31.1163 10.6156 30.9058C10.1573 30.6953 9.70958 30.4635 9.27546 30.2089C8.84285 29.9558 8.42234 29.6827 8.01847 29.3897C7.6146 29.0968 7.22586 28.7853 6.85526 28.4554C6.48467 28.1254 6.13374 27.7784 5.80097 27.4157C5.46819 27.0517 5.15508 26.6734 4.86314 26.2808C4.57121 25.8883 4.30045 25.4816 4.05389 25.0635C3.80582 24.6439 3.58044 24.2158 3.37926 23.775C3.17808 23.3355 3.00111 22.8875 2.84833 22.4296C2.69556 21.973 2.5685 21.5108 2.46564 21.0415C2.36278 20.5722 2.28715 20.1 2.23572 19.6236C2.18429 19.1472 2.15858 18.6707 2.16009 18.1915V16.1705H6.67581e-05V18.1915C-0.00144615 18.7006 0.0227558 19.2083 0.0726725 19.7146C0.124101 20.2223 0.199733 20.7258 0.301078 21.225C0.400911 21.7256 0.527971 22.2205 0.677721 22.7097C0.828983 23.1975 1.00445 23.6797 1.20411 24.1533C1.40378 24.6268 1.62613 25.0905 1.87269 25.5442C2.11925 25.9978 2.38849 26.4387 2.67892 26.8696C2.97085 27.2991 3.28245 27.7158 3.61523 28.1183C3.94801 28.5208 4.30045 28.9076 4.67255 29.2788C5.04617 29.65 5.43491 30.0041 5.84332 30.3412C6.25173 30.6782 6.67526 30.9954 7.11543 31.2955C7.55561 31.5941 8.00939 31.8743 8.47679 32.1331C8.94571 32.392 9.42521 32.6309 9.91832 32.8471C10.4099 33.0647 10.9121 33.2581 11.4249 33.4316C11.9362 33.6037 12.455 33.753 12.9829 33.8796C13.5093 34.0061 14.0417 34.11 14.5787 34.1896C15.1172 34.2678 15.6572 34.3247 16.2002 34.356V38.3964H9.72017V40.4174H24.8403V38.3964H18.3603V34.356C18.9033 34.3247 19.4433 34.2678 19.9803 34.1896C20.5173 34.11 21.0497 34.0061 21.5776 33.8796C22.104 33.753 22.6228 33.6037 23.1356 33.4316C23.6469 33.2581 24.1491 33.0647 24.6422 32.8471C25.1338 32.6309 25.6148 32.392 26.0822 32.1331C26.5511 31.8743 27.0049 31.5941 27.4451 31.2955C27.8852 30.9954 28.3088 30.6782 28.7172 30.3412C29.1241 30.0041 29.5143 29.65 29.8864 29.2788C30.2585 28.9076 30.611 28.5208 30.9438 28.1183C31.2765 27.7158 31.5896 27.2991 31.8801 26.8696C32.172 26.4387 32.4397 25.9978 32.6863 25.5442C32.9328 25.0905 33.1552 24.6268 33.3549 24.1533C33.5545 23.6797 33.73 23.1975 33.8813 22.7097C34.0325 22.2205 34.1581 21.7256 34.2594 21.225C34.3608 20.7258 34.4364 20.2223 34.4863 19.7146C34.5362 19.2083 34.5604 18.7006 34.5604 18.1915V16.1705H32.4004Z" fill="#30D0D0"/>
<path d="M7.56011 14.151V8.08966C7.56011 7.95456 7.58733 7.82656 7.64179 7.70283C7.69624 7.5791 7.7749 7.46959 7.87624 7.3743C7.97759 7.28044 8.09406 7.20649 8.22717 7.15529C8.35877 7.10409 8.49642 7.07849 8.64012 7.07849C8.7823 7.07849 8.92147 7.10409 9.05306 7.15529C9.18466 7.20649 9.30265 7.28044 9.40399 7.3743C9.50534 7.46959 9.58248 7.5791 9.63694 7.70283C9.6929 7.82656 9.72013 7.95456 9.72013 8.08966V16.1705C9.72013 16.3056 9.74736 16.4336 9.80181 16.5573C9.85627 16.6811 9.93492 16.7906 10.0363 16.8859C10.1376 16.9797 10.2541 17.0537 10.3872 17.1049C10.5188 17.1561 10.6564 17.1817 10.8001 17.1817C10.9423 17.1817 11.0815 17.1561 11.2131 17.1049C11.3447 17.0537 11.4627 16.9797 11.564 16.8859C11.6654 16.7906 11.7425 16.6811 11.797 16.5573C11.8529 16.4336 11.8802 16.3056 11.8802 16.1705V10.1092C11.8802 9.97548 11.9074 9.84606 11.9618 9.72233C12.0163 9.5986 12.0949 9.49051 12.1963 9.39523C12.2976 9.29994 12.4141 9.22741 12.5472 9.17621C12.6788 9.12501 12.8165 9.09941 12.9602 9.09941C13.1024 9.09941 13.2415 9.12501 13.3731 9.17621C13.5047 9.22741 13.6227 9.29994 13.724 9.39523C13.8254 9.49051 13.9025 9.5986 13.957 9.72233C14.013 9.84606 14.0402 9.97548 14.0402 10.1092V11.1203C14.0402 11.254 14.0674 11.382 14.1219 11.5057C14.1763 11.6295 14.255 11.739 14.3563 11.8343C14.4577 11.9296 14.5741 12.0021 14.7072 12.0533C14.8388 12.1045 14.9765 12.1301 15.1202 12.1301C15.2624 12.1301 15.4015 12.1045 15.5331 12.0533C15.6647 12.0021 15.7827 11.9296 15.8841 11.8343C15.9854 11.739 16.0626 11.6295 16.117 11.5057C16.173 11.382 16.2002 11.254 16.2002 11.1203V6.06874C16.2002 5.93505 16.2274 5.80564 16.2819 5.68191C16.3363 5.55818 16.415 5.44867 16.5163 5.3548C16.6177 5.25952 16.7342 5.18699 16.8673 5.13579C16.9989 5.08317 17.1365 5.05757 17.2802 5.05757C17.4224 5.05757 17.5616 5.08317 17.6932 5.13579C17.8248 5.18699 17.9427 5.25952 18.0441 5.3548C18.1454 5.44867 18.2226 5.55818 18.277 5.68191C18.333 5.80564 18.3602 5.93505 18.3602 6.06874V15.1608C18.3602 15.2944 18.3875 15.4239 18.4419 15.5476C18.4964 15.6713 18.575 15.7808 18.6764 15.8747C18.7777 15.97 18.8942 16.0425 19.0273 16.0937C19.1589 16.1449 19.2965 16.1705 19.4402 16.1705C19.5824 16.1705 19.7216 16.1449 19.8532 16.0937C19.9848 16.0425 20.1028 15.97 20.2041 15.8747C20.3055 15.7808 20.3826 15.6713 20.4371 15.5476C20.493 15.4239 20.5203 15.2944 20.5203 15.1608V8.08966C20.5203 7.95456 20.5475 7.82656 20.6019 7.70283C20.6564 7.5791 20.735 7.46959 20.8364 7.3743C20.9377 7.28044 21.0542 7.20649 21.1873 7.15529C21.3189 7.10409 21.4566 7.07849 21.6003 7.07849C21.7425 7.07849 21.8816 7.10409 22.0132 7.15529C22.1448 7.20649 22.2628 7.28044 22.3641 7.3743C22.4655 7.46959 22.5426 7.5791 22.5971 7.70283C22.6531 7.82656 22.6803 7.95456 22.6803 8.08966V10.1092C22.6803 10.2428 22.7075 10.3723 22.762 10.496C22.8164 10.6197 22.8951 10.7292 22.9964 10.8245C23.0978 10.9184 23.2142 10.9923 23.3473 11.0435C23.4789 11.0947 23.6166 11.1203 23.7603 11.1203C23.9025 11.1203 24.0416 11.0947 24.1732 11.0435C24.3048 10.9923 24.4228 10.9184 24.5242 10.8245C24.6255 10.7292 24.7027 10.6197 24.7571 10.496C24.8131 10.3723 24.8403 10.2428 24.8403 10.1092V9.09941C24.8403 8.96573 24.8675 8.83631 24.922 8.71258C24.9764 8.58885 25.0551 8.47934 25.1564 8.38548C25.2578 8.29019 25.3743 8.21766 25.5074 8.16646C25.639 8.11526 25.7766 8.08966 25.9203 8.08966C26.0625 8.08966 26.2017 8.11526 26.3333 8.16646C26.4649 8.21766 26.5828 8.29019 26.6842 8.38548C26.7855 8.47934 26.8627 8.58885 26.9171 8.71258C26.9731 8.83631 27.0003 8.96573 27.0003 9.09941V14.151H30.2404V12.4842C30.2449 12.1059 30.2298 11.7276 30.198 11.3507C30.1647 10.9739 30.1133 10.5984 30.0437 10.2258C29.9741 9.85317 29.8879 9.48482 29.782 9.11932C29.6762 8.75382 29.5521 8.39401 29.4114 8.03989C29.2708 7.68434 29.1135 7.33733 28.938 6.996C28.7625 6.65468 28.5719 6.32189 28.3647 5.99763C28.156 5.67337 27.9336 5.35765 27.6946 5.05188C27.4571 4.74753 27.203 4.45172 26.9368 4.1687C26.6691 3.88427 26.3877 3.61263 26.0943 3.35379C25.8008 3.09353 25.4938 2.84607 25.1761 2.61283C24.8569 2.3796 24.5287 2.16058 24.1884 1.95579C23.8495 1.74957 23.5001 1.559 23.1416 1.38407C22.7831 1.20914 22.4171 1.04986 22.0435 0.906215C21.6698 0.761152 21.2887 0.634578 20.9029 0.522225C20.5157 0.411295 20.1255 0.317431 19.7292 0.239211C19.3328 0.160991 18.935 0.101259 18.5327 0.0571713C18.0834 0.0159281 17.6342 -0.0025602 17.1834 0.000283984C16.7326 0.00455062 16.2834 0.0287277 15.8357 0.0756597C15.3879 0.122592 14.9432 0.192279 14.503 0.281876C14.0629 0.372896 13.6287 0.483826 13.2007 0.617512C12.7726 0.749774 12.3536 0.903371 11.9422 1.07688C11.5323 1.25038 11.1314 1.4438 10.7427 1.65571C10.3524 1.86903 9.97728 2.09943 9.61273 2.34973C9.2497 2.59861 8.9018 2.86456 8.56751 3.149C8.23322 3.43201 7.91708 3.73067 7.61607 4.04497C7.31506 4.3607 7.03371 4.6878 6.77052 5.03055C6.50581 5.37187 6.26228 5.72599 6.03841 6.0915C5.81303 6.457 5.61034 6.83387 5.42731 7.21929C5.24579 7.6047 5.08546 7.99864 4.94629 8.3997C4.80865 8.80075 4.69217 9.2075 4.59839 9.61993C4.50612 10.0324 4.43654 10.4491 4.38965 10.8686C4.34276 11.2882 4.32007 11.7077 4.32007 12.1301V14.151H7.56011Z" fill="#EAEAEA"/>
<path d="M27.0003 16.1706V22.2334C27.0003 22.367 26.9731 22.495 26.9171 22.6188C26.8627 22.7425 26.7855 22.852 26.6842 22.9473C26.5828 23.0426 26.4649 23.1151 26.3333 23.1663C26.2017 23.2175 26.0625 23.2431 25.9203 23.2431C25.7766 23.2431 25.639 23.2175 25.5074 23.1663C25.3743 23.1151 25.2578 23.0426 25.1564 22.9473C25.0551 22.852 24.9764 22.7425 24.922 22.6188C24.8675 22.495 24.8403 22.367 24.8403 22.2334V14.1511C24.8403 14.0174 24.8131 13.888 24.7571 13.7642C24.7027 13.6405 24.6255 13.531 24.5242 13.4357C24.4228 13.3418 24.3048 13.2679 24.1732 13.2167C24.0416 13.1655 23.9025 13.1399 23.7603 13.1399C23.6166 13.1399 23.4789 13.1655 23.3473 13.2167C23.2142 13.2679 23.0978 13.3418 22.9964 13.4357C22.8951 13.531 22.8164 13.6405 22.762 13.7642C22.7075 13.888 22.6803 14.0174 22.6803 14.1511V20.2124C22.6803 20.3461 22.6531 20.4755 22.5971 20.5993C22.5426 20.723 22.4655 20.8325 22.3641 20.9264C22.2628 21.0217 22.1448 21.0942 22.0132 21.1454C21.8816 21.1966 21.7425 21.2222 21.6003 21.2222C21.4566 21.2222 21.3189 21.1966 21.1873 21.1454C21.0542 21.0942 20.9377 21.0217 20.8364 20.9264C20.7351 20.8325 20.6564 20.723 20.6019 20.5993C20.5475 20.4755 20.5203 20.3461 20.5203 20.2124V19.2027C20.5203 19.0676 20.493 18.9396 20.4371 18.8158C20.3826 18.6921 20.3055 18.5826 20.2041 18.4873C20.1028 18.3935 19.9848 18.3195 19.8532 18.2683C19.7216 18.2171 19.5824 18.1915 19.4403 18.1915C19.2966 18.1915 19.1589 18.2171 19.0273 18.2683C18.8942 18.3195 18.7777 18.3935 18.6764 18.4873C18.575 18.5826 18.4964 18.6921 18.4419 18.8158C18.3875 18.9396 18.3602 19.0676 18.3602 19.2027V24.2529C18.3602 24.388 18.333 24.516 18.277 24.6397C18.2226 24.7634 18.1454 24.8729 18.0441 24.9682C17.9428 25.0621 17.8248 25.136 17.6932 25.1872C17.5616 25.2384 17.4224 25.264 17.2802 25.264C17.1365 25.264 16.9989 25.2384 16.8673 25.1872C16.7342 25.136 16.6177 25.0621 16.5164 24.9682C16.415 24.8729 16.3364 24.7634 16.2819 24.6397C16.2274 24.516 16.2002 24.388 16.2002 24.2529V15.1608C16.2002 15.0271 16.173 14.8977 16.117 14.774C16.0626 14.6503 15.9854 14.5407 15.8841 14.4469C15.7827 14.3516 15.6648 14.2791 15.5332 14.2279C15.4016 14.1767 15.2624 14.1511 15.1202 14.1511C14.9765 14.1511 14.8389 14.1767 14.7073 14.2279C14.5742 14.2791 14.4577 14.3516 14.3563 14.4469C14.255 14.5407 14.1763 14.6503 14.1219 14.774C14.0674 14.8977 14.0402 15.0271 14.0402 15.1608V22.2334C14.0402 22.367 14.013 22.495 13.957 22.6188C13.9026 22.7425 13.8254 22.852 13.7241 22.9473C13.6227 23.0426 13.5047 23.1151 13.3731 23.1663C13.2415 23.2175 13.1024 23.2431 12.9602 23.2431C12.8165 23.2431 12.6788 23.2175 12.5472 23.1663C12.4141 23.1151 12.2977 23.0426 12.1963 22.9473C12.095 22.852 12.0163 22.7425 11.9619 22.6188C11.9074 22.495 11.8802 22.367 11.8802 22.2334V20.2124C11.8802 20.0787 11.853 19.9493 11.797 19.8256C11.7425 19.7019 11.6654 19.5924 11.564 19.4985C11.4627 19.4032 11.3447 19.3307 11.2131 19.2795C11.0815 19.2283 10.9424 19.2027 10.8002 19.2027C10.6565 19.2027 10.5188 19.2283 10.3872 19.2795C10.2541 19.3307 10.1376 19.4032 10.0363 19.4985C9.93495 19.5924 9.8563 19.7019 9.80184 19.8256C9.74739 19.9493 9.72016 20.0787 9.72016 20.2124V21.2222C9.72016 21.3559 9.69293 21.4853 9.63697 21.609C9.58251 21.7327 9.50537 21.8423 9.40402 21.9375C9.30268 22.0314 9.18469 22.1039 9.0531 22.1566C8.9215 22.2078 8.78234 22.2334 8.64015 22.2334C8.49645 22.2334 8.3588 22.2078 8.22721 22.1566C8.09409 22.1039 7.97762 22.0314 7.87628 21.9375C7.77493 21.8423 7.69628 21.7327 7.64182 21.609C7.58737 21.4853 7.56014 21.3559 7.56014 21.2222V16.1706H4.32011V17.8388C4.31406 18.2171 4.32616 18.5968 4.35792 18.9751C4.38818 19.3534 4.43809 19.7289 4.50616 20.1029C4.57423 20.477 4.66196 20.8467 4.76633 21.2136C4.8707 21.5806 4.99322 21.9418 5.13239 22.2974C5.27306 22.6529 5.43037 23.0028 5.60432 23.3455C5.77979 23.6868 5.97038 24.021 6.17761 24.3481C6.38484 24.6738 6.60719 24.991 6.84618 25.2967C7.08518 25.6039 7.33779 25.8998 7.60552 26.1856C7.87325 26.47 8.15309 26.7431 8.44805 27.0048C8.74301 27.2651 9.04856 27.5125 9.36772 27.7472C9.68688 27.9818 10.0166 28.2023 10.357 28.4085C10.6973 28.6147 11.0467 28.8067 11.4052 28.9816C11.7652 29.158 12.1328 29.3187 12.5064 29.4638C12.8815 29.6074 13.2627 29.7354 13.6515 29.8477C14.0387 29.9601 14.4305 30.054 14.8268 30.1322C15.2246 30.2104 15.6239 30.2716 16.0278 30.3156C16.477 30.3555 16.9278 30.374 17.3801 30.3711C17.8323 30.3683 18.2816 30.3427 18.7308 30.2957C19.1801 30.2488 19.6248 30.1791 20.0665 30.0881C20.5082 29.9971 20.9438 29.8847 21.3719 29.751C21.8015 29.6173 22.2204 29.4638 22.6334 29.2888C23.0448 29.1153 23.4457 28.9205 23.8344 28.7071C24.2247 28.4924 24.6013 28.2606 24.9658 28.0103C25.3289 27.76 25.6783 27.4912 26.0126 27.2067C26.3469 26.9223 26.663 26.6208 26.964 26.3051C27.2635 25.9894 27.5464 25.6594 27.8096 25.3167C28.0728 24.9725 28.3163 24.6169 28.5402 24.25C28.764 23.8831 28.9667 23.5062 29.1482 23.118C29.3298 22.7311 29.4901 22.3372 29.6262 21.9333C29.7639 21.5308 29.8788 21.1226 29.9711 20.7088C30.0619 20.2949 30.1299 19.8768 30.1753 19.4572C30.2207 19.0363 30.2419 18.6139 30.2404 18.1915V16.1706H27.0003Z" fill="#EAEAEA"/>
</svg>
